<mxfile host="app.diagrams.net" agent="Mozilla/5.0 (Windows NT 10.0; Win64; x64) AppleWebKit/537.36 (KHTML, like Gecko) Chrome/118.0.0.0 Safari/537.36" version="24.9.1">
  <diagram name="Page-1" id="UC1jUfUWWfGdeCDogA8o">
    <mxGraphModel dx="1434" dy="782" grid="1" gridSize="10" guides="1" tooltips="1" connect="1" arrows="1" fold="1" page="1" pageScale="1" pageWidth="827" pageHeight="1169" math="0" shadow="0">
      <root>
        <mxCell id="0" />
        <mxCell id="1" parent="0" />
        <mxCell id="HuFbkWinaVBAzgEqc3Ru-1" value="" style="rounded=0;html=1;jettySize=auto;orthogonalLoop=1;fontSize=11;endArrow=block;endFill=0;endSize=8;strokeWidth=1;shadow=0;labelBackgroundColor=none;edgeStyle=orthogonalEdgeStyle;" parent="1" source="HuFbkWinaVBAzgEqc3Ru-2" target="HuFbkWinaVBAzgEqc3Ru-5" edge="1">
          <mxGeometry relative="1" as="geometry" />
        </mxCell>
        <mxCell id="HuFbkWinaVBAzgEqc3Ru-2" value="輸入車輛信息(車牌號碼、引擎號碼、維修日期、維修細節)" style="rounded=1;whiteSpace=wrap;html=1;fontSize=12;glass=0;strokeWidth=1;shadow=0;" parent="1" vertex="1">
          <mxGeometry x="129" y="170" width="200" height="40" as="geometry" />
        </mxCell>
        <mxCell id="HuFbkWinaVBAzgEqc3Ru-3" value="如果資料完整" style="rounded=0;html=1;jettySize=auto;orthogonalLoop=1;fontSize=11;endArrow=block;endFill=0;endSize=8;strokeWidth=1;shadow=0;labelBackgroundColor=none;edgeStyle=orthogonalEdgeStyle;entryX=0.5;entryY=0;entryDx=0;entryDy=0;" parent="1" source="HuFbkWinaVBAzgEqc3Ru-5" target="HuFbkWinaVBAzgEqc3Ru-9" edge="1">
          <mxGeometry x="-0.0909" y="40" relative="1" as="geometry">
            <mxPoint as="offset" />
            <mxPoint x="229" y="420" as="targetPoint" />
          </mxGeometry>
        </mxCell>
        <mxCell id="HuFbkWinaVBAzgEqc3Ru-4" value="如果資料不完整" style="edgeStyle=orthogonalEdgeStyle;rounded=0;html=1;jettySize=auto;orthogonalLoop=1;fontSize=11;endArrow=block;endFill=0;endSize=8;strokeWidth=1;shadow=0;labelBackgroundColor=none;" parent="1" source="HuFbkWinaVBAzgEqc3Ru-5" target="HuFbkWinaVBAzgEqc3Ru-7" edge="1">
          <mxGeometry y="10" relative="1" as="geometry">
            <mxPoint as="offset" />
          </mxGeometry>
        </mxCell>
        <mxCell id="HuFbkWinaVBAzgEqc3Ru-5" value="驗證資料" style="rhombus;whiteSpace=wrap;html=1;shadow=0;fontFamily=Helvetica;fontSize=12;align=center;strokeWidth=1;spacing=6;spacingTop=-4;" parent="1" vertex="1">
          <mxGeometry x="179" y="260" width="100" height="80" as="geometry" />
        </mxCell>
        <mxCell id="HuFbkWinaVBAzgEqc3Ru-6" style="edgeStyle=orthogonalEdgeStyle;rounded=0;orthogonalLoop=1;jettySize=auto;html=1;exitX=0.5;exitY=0;exitDx=0;exitDy=0;entryX=1;entryY=0.5;entryDx=0;entryDy=0;" parent="1" source="HuFbkWinaVBAzgEqc3Ru-7" target="HuFbkWinaVBAzgEqc3Ru-2" edge="1">
          <mxGeometry relative="1" as="geometry" />
        </mxCell>
        <mxCell id="HuFbkWinaVBAzgEqc3Ru-7" value="提示使用者「請填寫所有必填項」" style="rounded=1;whiteSpace=wrap;html=1;fontSize=12;glass=0;strokeWidth=1;shadow=0;" parent="1" vertex="1">
          <mxGeometry x="489" y="280" width="190" height="40" as="geometry" />
        </mxCell>
        <mxCell id="HuFbkWinaVBAzgEqc3Ru-8" value="" style="edgeStyle=orthogonalEdgeStyle;rounded=0;orthogonalLoop=1;jettySize=auto;html=1;" parent="1" source="HuFbkWinaVBAzgEqc3Ru-9" target="HuFbkWinaVBAzgEqc3Ru-11" edge="1">
          <mxGeometry relative="1" as="geometry" />
        </mxCell>
        <mxCell id="HuFbkWinaVBAzgEqc3Ru-9" value="將資料存儲到相關表裡" style="rounded=1;whiteSpace=wrap;html=1;fontSize=12;glass=0;strokeWidth=1;shadow=0;" parent="1" vertex="1">
          <mxGeometry x="164" y="450" width="130" height="40" as="geometry" />
        </mxCell>
        <mxCell id="HuFbkWinaVBAzgEqc3Ru-10" value="新增維修紀錄流程圖(管理員)" style="text;html=1;align=center;verticalAlign=middle;resizable=0;points=[];autosize=1;strokeColor=none;fillColor=none;" parent="1" vertex="1">
          <mxGeometry x="139" y="120" width="180" height="30" as="geometry" />
        </mxCell>
        <mxCell id="HuFbkWinaVBAzgEqc3Ru-11" value="顯示操作成功" style="rounded=1;whiteSpace=wrap;html=1;fontSize=12;glass=0;strokeWidth=1;shadow=0;" parent="1" vertex="1">
          <mxGeometry x="164" y="530" width="130" height="40" as="geometry" />
        </mxCell>
        <mxCell id="vX0lyhzSFgJIpqLpfu0u-1" value="1.2.5" style="text;html=1;align=center;verticalAlign=middle;resizable=0;points=[];autosize=1;strokeColor=none;fillColor=none;" parent="1" vertex="1">
          <mxGeometry x="204" y="90" width="50" height="30" as="geometry" />
        </mxCell>
        <mxCell id="vX0lyhzSFgJIpqLpfu0u-2" value="1.2.5.1" style="text;html=1;align=center;verticalAlign=middle;resizable=0;points=[];autosize=1;strokeColor=none;fillColor=none;" parent="1" vertex="1">
          <mxGeometry x="64" y="175" width="60" height="30" as="geometry" />
        </mxCell>
        <mxCell id="vX0lyhzSFgJIpqLpfu0u-3" value="1.2.5.2" style="text;html=1;align=center;verticalAlign=middle;resizable=0;points=[];autosize=1;strokeColor=none;fillColor=none;" parent="1" vertex="1">
          <mxGeometry x="104" y="285" width="60" height="30" as="geometry" />
        </mxCell>
        <mxCell id="vX0lyhzSFgJIpqLpfu0u-4" value="1.2.5.2.1" style="text;html=1;align=center;verticalAlign=middle;resizable=0;points=[];autosize=1;strokeColor=none;fillColor=none;" parent="1" vertex="1">
          <mxGeometry x="694" y="285" width="70" height="30" as="geometry" />
        </mxCell>
        <mxCell id="vX0lyhzSFgJIpqLpfu0u-5" value="1.2.5.3" style="text;html=1;align=center;verticalAlign=middle;resizable=0;points=[];autosize=1;strokeColor=none;fillColor=none;" parent="1" vertex="1">
          <mxGeometry x="89" y="455" width="60" height="30" as="geometry" />
        </mxCell>
        <mxCell id="vX0lyhzSFgJIpqLpfu0u-6" value="1.2.5.4" style="text;html=1;align=center;verticalAlign=middle;resizable=0;points=[];autosize=1;strokeColor=none;fillColor=none;" parent="1" vertex="1">
          <mxGeometry x="89" y="535" width="60" height="30" as="geometry" />
        </mxCell>
      </root>
    </mxGraphModel>
  </diagram>
</mxfile>
